<svg width="186" height="188" viewBox="0 0 186 188" fill="none" xmlns="http://www.w3.org/2000/svg">
<circle cx="178.467" cy="27.5" r="7.5" fill="url(#paint0_linear_1_14409)"/>
<circle cx="20.0334" cy="10" r="10" fill="url(#paint1_linear_1_14409)"/>
<circle cx="10.0334" cy="133" r="5" fill="url(#paint2_linear_1_14409)"/>
<circle cx="165.533" cy="160.5" r="2.5" fill="url(#paint3_linear_1_14409)"/>
<path fill-rule="evenodd" clip-rule="evenodd" d="M109.235 79.7281C109.235 87.0707 103.348 92.9583 96.0003 92.9583C88.6551 92.9583 82.7654 87.0707 82.7654 79.7281C82.7654 72.3855 88.6551 66.5005 96.0003 66.5005C103.348 66.5005 109.235 72.3855 109.235 79.7281ZM96.0003 116.5C85.1562 116.5 76.0003 114.738 76.0003 107.938C76.0003 101.135 85.2137 99.4351 96.0003 99.4351C106.847 99.4351 116 101.198 116 107.998C116 114.8 106.787 116.5 96.0003 116.5Z" fill="white"/>
<circle cx="106.533" cy="4.5" r="2.5" fill="url(#paint4_linear_1_14409)"/>
<circle cx="62.5334" cy="176.5" r="3.5" fill="url(#paint5_linear_1_14409)"/>
<circle cx="122.033" cy="171" r="1" fill="url(#paint6_linear_1_14409)"/>
<circle cx="170.533" cy="110.5" r="2.5" fill="url(#paint7_linear_1_14409)"/>
<circle cx="1.03345" cy="75" r="1" fill="url(#paint8_linear_1_14409)"/>
<path d="M102.642 165.314C141.931 165.314 173.783 133.462 173.783 94.0335C173.783 54.6047 141.791 22.7529 102.642 22.7529C63.3539 22.7529 31.5021 54.6047 31.5021 94.0335C31.5021 133.462 63.3539 165.314 102.642 165.314Z" fill="#EAEEF9"/>
<path d="M169.152 47.3082C172.33 47.3082 174.905 44.7325 174.905 41.5552C174.905 38.3779 172.33 35.8022 169.152 35.8022C165.975 35.8022 163.399 38.3779 163.399 41.5552C163.399 44.7325 165.975 47.3082 169.152 47.3082Z" fill="#EAEEF9"/>
<path d="M177.571 24.8577C179.741 24.8577 181.5 23.0987 181.5 20.9289C181.5 18.759 179.741 17 177.571 17C175.401 17 173.642 18.759 173.642 20.9289C173.642 23.0987 175.401 24.8577 177.571 24.8577Z" fill="#EAEEF9"/>
<path d="M35.2905 47.1678C37.4604 47.1678 39.2194 45.4088 39.2194 43.2389C39.2194 41.0691 37.4604 39.3101 35.2905 39.3101C33.1207 39.3101 31.3617 41.0691 31.3617 43.2389C31.3617 45.4088 33.1207 47.1678 35.2905 47.1678Z" fill="#EAEEF9"/>
<path d="M11.2965 122.939C15.3262 122.939 18.5929 119.672 18.5929 115.643C18.5929 111.613 15.3262 108.346 11.2965 108.346C7.26676 108.346 4.00003 111.613 4.00003 115.643C4.00003 119.672 7.26676 122.939 11.2965 122.939Z" fill="#EAEEF9"/>
<g filter="url(#filter0_d_1_14409)">
<path d="M151.051 58.393L152.174 148.757C152.174 151.844 149.648 154.229 146.561 154.229H58.4428C55.3558 154.229 52.8301 151.703 52.8301 148.757V32.5749C52.8301 29.4879 55.3558 27.1025 58.4428 27.1025H122.287L151.051 58.393Z" fill="url(#paint9_linear_1_14409)"/>
</g>
<path d="M95.7667 136.128H78.5078C77.8063 136.128 77.245 135.427 77.245 134.585C77.245 133.743 77.8063 133.042 78.5078 133.042H95.7667C96.4683 133.042 97.0296 133.743 97.0296 134.585C97.0296 135.567 96.4683 136.128 95.7667 136.128Z" fill="#D5DDEA"/>
<path d="M85.9448 136.128H67.1424C66.4408 136.128 65.8796 135.427 65.8796 134.585C65.8796 133.743 66.4408 133.042 67.1424 133.042H85.9448C86.6464 133.042 87.2076 133.743 87.2076 134.585C87.2076 135.567 86.6464 136.128 85.9448 136.128Z" fill="#D5DDEA"/>
<path d="M109.939 46.0457H67.7037C66.7215 46.0457 65.8796 45.2038 65.8796 44.2216C65.8796 43.2394 66.7215 42.3975 67.7037 42.3975H109.939C110.921 42.3975 111.763 43.2394 111.763 44.2216C111.763 45.2038 110.921 46.0457 109.939 46.0457Z" fill="#D5DDEA"/>
<path d="M83.9804 56.1482H67.7037C66.7215 56.1482 65.8796 55.3063 65.8796 54.3241C65.8796 53.3419 66.7215 52.5 67.7037 52.5H83.8401C84.8223 52.5 85.6642 53.3419 85.6642 54.3241C85.6642 55.3063 84.8223 56.1482 83.9804 56.1482Z" fill="#D5DDEA"/>
<path d="M122.287 27.1025V52.0788C122.287 55.5867 125.374 58.393 128.881 58.393H151.051" fill="#D5DDEA"/>
<path d="M138.509 111.847H89.8249H84.4592H68.2311C67.5767 111.847 66.9224 112.502 66.9224 113.42C66.9224 114.207 67.4459 114.994 68.2311 114.994H84.4592H89.8249H138.509C139.164 114.994 139.818 114.339 139.818 113.42C139.687 112.502 139.164 111.847 138.509 111.847Z" fill="#D5DDEA"/>
<path d="M138.378 100.437H120.318H114.167H68.2311C67.5767 100.437 66.9224 101.093 66.9224 102.011C66.9224 102.798 67.4459 103.585 68.2311 103.585H114.167H120.318H138.378C139.033 103.585 139.687 102.929 139.687 102.011C139.556 101.093 139.033 100.437 138.378 100.437Z" fill="#D5DDEA"/>
<path d="M138.771 88.8955H134.06H129.348H68.2311C67.5767 88.8955 66.9224 89.5513 66.9224 90.4693C66.9224 91.2562 67.4459 92.0431 68.2311 92.0431H129.348H134.583H138.64C139.294 92.0431 139.949 91.3874 139.949 90.4693C140.08 89.6824 139.425 88.8955 138.771 88.8955Z" fill="#D5DDEA"/>
<path d="M87.4692 137.29H68.2311C67.5767 137.29 66.9224 136.634 66.9224 135.716C66.9224 134.929 67.4459 134.142 68.2311 134.142H87.4692C88.1236 134.142 88.778 134.798 88.778 135.716C88.778 136.765 88.1236 137.29 87.4692 137.29Z" fill="#E3EAF2"/>
<path d="M139.294 77.4854H123.982H120.187H68.2311C67.5767 77.4854 66.9224 78.1411 66.9224 79.0591C66.9224 79.846 67.4459 80.6329 68.2311 80.6329H120.187H123.982H139.164C140.08 80.6329 140.603 79.9772 140.603 79.0591C140.603 78.2723 140.08 77.4854 139.294 77.4854Z" fill="#D5DDEA"/>
<path d="M69.2781 144.241H38.3924C34.9897 144.241 32.2414 141.487 32.2414 138.077V95.1907C32.2414 83.2561 41.9259 73.6821 53.7044 73.6821C65.4828 73.6821 75.1673 83.3872 75.1673 95.1907V138.208C75.2982 141.487 72.5499 144.241 69.2781 144.241ZM44.5433 132.044H63.1271V95.1907C63.1271 90.0759 58.9392 85.8791 53.8352 85.8791C48.7312 85.8791 44.5433 90.0759 44.5433 95.1907V132.044Z" fill="#989FB0"/>
<path d="M81.9727 155.913H26.0904C22.2952 155.913 19.1542 152.765 19.1542 148.962V111.846C19.1542 108.043 22.2952 104.896 26.0904 104.896H81.9727C85.768 104.896 88.9089 108.043 88.9089 111.846V148.962C88.9089 152.765 85.768 155.913 81.9727 155.913Z" fill="#C2C8D6"/>
<path d="M61.033 124.699C61.033 127.453 59.4626 129.814 57.2377 130.994V138.601C57.2377 140.437 55.7981 141.88 53.9659 141.88C52.1337 141.88 50.6941 140.437 50.6941 138.601V130.994C48.4693 129.814 46.8989 127.453 46.8989 124.699C46.8989 120.765 50.0398 117.617 53.9659 117.617C57.8921 117.617 61.033 120.765 61.033 124.699Z" fill="#989FB0"/>
<defs>
<filter id="filter0_d_1_14409" x="30.8301" y="16.1025" width="143.344" height="171.126" filterUnits="userSpaceOnUse" color-interpolation-filters="sRGB">
<feFlood flood-opacity="0" result="BackgroundImageFix"/>
<feColorMatrix in="SourceAlpha" type="matrix" values="0 0 0 0 0 0 0 0 0 0 0 0 0 0 0 0 0 0 127 0" result="hardAlpha"/>
<feOffset dy="11"/>
<feGaussianBlur stdDeviation="11"/>
<feColorMatrix type="matrix" values="0 0 0 0 0.397708 0 0 0 0 0.47749 0 0 0 0 0.575 0 0 0 0.27 0"/>
<feBlend mode="normal" in2="BackgroundImageFix" result="effect1_dropShadow_1_14409"/>
<feBlend mode="normal" in="SourceGraphic" in2="effect1_dropShadow_1_14409" result="shape"/>
</filter>
<linearGradient id="paint0_linear_1_14409" x1="178.467" y1="20" x2="178.467" y2="35" gradientUnits="userSpaceOnUse">
<stop stop-color="#7E92F8"/>
<stop offset="1" stop-color="#6972F0"/>
</linearGradient>
<linearGradient id="paint1_linear_1_14409" x1="20.0334" y1="0" x2="20.0334" y2="20" gradientUnits="userSpaceOnUse">
<stop stop-color="#7E92F8"/>
<stop offset="1" stop-color="#6972F0"/>
</linearGradient>
<linearGradient id="paint2_linear_1_14409" x1="10.0334" y1="128" x2="10.0334" y2="138" gradientUnits="userSpaceOnUse">
<stop stop-color="#7E92F8"/>
<stop offset="1" stop-color="#6972F0"/>
</linearGradient>
<linearGradient id="paint3_linear_1_14409" x1="165.533" y1="158" x2="165.533" y2="163" gradientUnits="userSpaceOnUse">
<stop stop-color="#7E92F8"/>
<stop offset="1" stop-color="#6972F0"/>
</linearGradient>
<linearGradient id="paint4_linear_1_14409" x1="106.533" y1="2" x2="106.533" y2="7" gradientUnits="userSpaceOnUse">
<stop stop-color="#7E92F8"/>
<stop offset="1" stop-color="#6972F0"/>
</linearGradient>
<linearGradient id="paint5_linear_1_14409" x1="62.5334" y1="173" x2="62.5334" y2="180" gradientUnits="userSpaceOnUse">
<stop stop-color="#7E92F8"/>
<stop offset="1" stop-color="#6972F0"/>
</linearGradient>
<linearGradient id="paint6_linear_1_14409" x1="122.033" y1="170" x2="122.033" y2="172" gradientUnits="userSpaceOnUse">
<stop stop-color="#7E92F8"/>
<stop offset="1" stop-color="#6972F0"/>
</linearGradient>
<linearGradient id="paint7_linear_1_14409" x1="170.533" y1="108" x2="170.533" y2="113" gradientUnits="userSpaceOnUse">
<stop stop-color="#7E92F8"/>
<stop offset="1" stop-color="#6972F0"/>
</linearGradient>
<linearGradient id="paint8_linear_1_14409" x1="1.03345" y1="74" x2="1.03345" y2="76" gradientUnits="userSpaceOnUse">
<stop stop-color="#7E92F8"/>
<stop offset="1" stop-color="#6972F0"/>
</linearGradient>
<linearGradient id="paint9_linear_1_14409" x1="102.47" y1="24.162" x2="102.47" y2="155.599" gradientUnits="userSpaceOnUse">
<stop stop-color="#FDFEFF"/>
<stop offset="0.9964" stop-color="#ECF0F5"/>
</linearGradient>
</defs>
</svg>
