<svg width="270" height="232" viewBox="0 0 270 232" fill="none" xmlns="http://www.w3.org/2000/svg">
<path d="M126.915 222.4C188.207 222.4 237.896 172.71 237.896 111.2C237.896 49.6898 188.207 0 126.915 0C65.6239 0 15.9341 49.6898 15.9341 111.2C15.9341 172.71 65.6239 222.4 126.915 222.4Z" fill="#EAEEF9"/>
<path d="M250.594 76.3959C255.55 76.3959 259.569 72.3777 259.569 67.4211C259.569 62.4644 255.55 58.4463 250.594 58.4463C245.637 58.4463 241.619 62.4644 241.619 67.4211C241.619 72.3777 245.637 76.3959 250.594 76.3959Z" fill="#EAEEF9"/>
<path d="M263.727 41.1528C267.112 41.1528 269.856 38.4087 269.856 35.0237C269.856 31.6386 267.112 28.8945 263.727 28.8945C260.342 28.8945 257.598 31.6386 257.598 35.0237C257.598 38.4087 260.342 41.1528 263.727 41.1528Z" fill="#EAEEF9"/>
<path d="M8.27315 82.7436C11.6582 82.7436 14.4023 79.9995 14.4023 76.6145C14.4023 73.2295 11.6582 70.4854 8.27315 70.4854C4.88812 70.4854 2.14401 73.2295 2.14401 76.6145C2.14401 79.9995 4.88812 82.7436 8.27315 82.7436Z" fill="#EAEEF9"/>
<path d="M165.004 46.9375C202.791 46.9375 233.273 74.4189 233.273 108.203C233.273 127.617 223.197 145.013 207.326 156.359V181.823C207.326 185.353 203.295 187.118 200.776 185.101L179.111 168.209C174.577 168.965 170.042 169.469 165.256 169.469C127.468 169.469 96.9863 141.988 96.9863 108.203C96.9863 74.4189 127.468 46.9375 165.004 46.9375Z" fill="#CBD4E0"/>
<g filter="url(#filter0_d_104_1612)">
<path d="M98.2467 43.9131C56.1765 43.9131 22.1677 74.4199 22.1677 111.986C22.1677 133.669 33.504 153.082 51.1382 165.436V193.674C51.1382 197.456 55.4208 199.725 58.4438 197.204L82.6278 178.547C87.6662 179.555 92.7045 180.059 97.9948 180.059C140.065 180.059 174.074 149.553 174.074 111.986C174.074 74.4199 140.065 43.9131 98.2467 43.9131Z" fill="url(#paint0_linear_104_1612)"/>
</g>
<path d="M73.4336 114.758C78.0249 114.758 81.7469 111.033 81.7469 106.438C81.7469 101.843 78.0249 98.1182 73.4336 98.1182C68.8423 98.1182 65.1204 101.843 65.1204 106.438C65.1204 111.033 68.8423 114.758 73.4336 114.758Z" fill="#989FB0"/>
<path d="M120.542 114.758C125.133 114.758 128.855 111.033 128.855 106.438C128.855 101.843 125.133 98.1182 120.542 98.1182C115.95 98.1182 112.228 101.843 112.228 106.438C112.228 111.033 115.95 114.758 120.542 114.758Z" fill="#989FB0"/>
<path d="M107.442 141.231C106.686 141.231 105.93 140.979 105.426 140.222C103.411 137.449 100.388 135.936 96.8612 135.936C93.5863 135.936 90.3114 137.449 88.548 140.222C87.7922 141.483 86.2807 141.735 85.0212 140.726C83.7616 139.97 83.5096 138.457 84.5173 137.197C87.2884 133.163 92.0748 130.642 97.1132 130.642C102.152 130.642 106.686 133.163 109.709 137.197C110.465 138.457 110.213 139.97 109.205 140.726C108.449 141.231 107.946 141.231 107.442 141.231Z" fill="#989FB0"/>
<path d="M79.5065 37.5139C79.2027 37.5139 78.899 37.5139 78.5952 37.5139C77.0765 36.9059 76.1652 35.3859 76.469 33.8659L81.6327 17.1462C82.2402 15.6262 83.7589 14.7142 85.2777 15.0182C86.7964 15.6262 87.7077 17.1462 87.4039 18.6662L82.5439 35.3859C82.2402 36.6019 81.0252 37.5139 79.5065 37.5139Z" fill="#B5BCCE"/>
<path d="M66.7493 41.162C65.5343 41.162 64.3193 40.25 63.7118 39.034L55.8144 15.0184C55.2069 13.4984 56.1181 11.6744 57.6369 11.0664C59.1556 10.4584 60.9781 11.3704 61.5856 12.8904L69.483 36.906C70.0905 38.426 69.1793 40.25 67.6605 40.858C67.3568 41.162 67.053 41.162 66.7493 41.162Z" fill="#B5BCCE"/>
<path d="M54.9035 46.9374C53.9922 46.9374 53.3847 46.6334 52.7772 46.0254L43.0573 36.6015C41.8423 35.3855 41.8423 33.5616 43.0573 32.3456C44.2723 31.1296 46.0948 31.1296 47.3098 32.3456L57.0297 41.7694C58.2447 42.9854 58.2447 44.8094 57.0297 46.0254C56.4222 46.6334 55.5109 46.9374 54.9035 46.9374Z" fill="#B5BCCE"/>
<defs>
<filter id="filter0_d_104_1612" x="0.167725" y="32.9131" width="195.906" height="198.355" filterUnits="userSpaceOnUse" color-interpolation-filters="sRGB">
<feFlood flood-opacity="0" result="BackgroundImageFix"/>
<feColorMatrix in="SourceAlpha" type="matrix" values="0 0 0 0 0 0 0 0 0 0 0 0 0 0 0 0 0 0 127 0" result="hardAlpha"/>
<feOffset dy="11"/>
<feGaussianBlur stdDeviation="11"/>
<feColorMatrix type="matrix" values="0 0 0 0 0.397708 0 0 0 0 0.47749 0 0 0 0 0.575 0 0 0 0.27 0"/>
<feBlend mode="normal" in2="BackgroundImageFix" result="effect1_dropShadow_104_1612"/>
<feBlend mode="normal" in="SourceGraphic" in2="effect1_dropShadow_104_1612" result="shape"/>
</filter>
<linearGradient id="paint0_linear_104_1612" x1="98.0712" y1="40.3427" x2="98.0712" y2="199.933" gradientUnits="userSpaceOnUse">
<stop stop-color="#FDFEFF"/>
<stop offset="0.9964" stop-color="#ECF0F5"/>
</linearGradient>
</defs>
</svg>
