<svg width="21" height="21" viewBox="0 0 21 21" fill="none" xmlns="http://www.w3.org/2000/svg">
<path d="M10.5 0C4.70132 0 0 4.70132 0 10.5C0 15.74 3.83918 20.0833 8.85974 20.874V13.5359H6.19247V10.5H8.85974V8.18662C8.85974 5.55296 10.4275 4.10066 12.8249 4.10066C13.9737 4.10066 15.1772 4.30543 15.1772 4.30543V6.88764H13.8498C12.5477 6.88764 12.1403 7.69832 12.1403 8.52895V10.4979H15.0501L14.5849 13.5338H12.1403V20.8719C17.1608 20.0854 21 15.7411 21 10.5C21 4.70132 16.2987 0 10.5 0Z" fill="url(#paint0_linear_1_31238)"/>
<defs>
<linearGradient id="paint0_linear_1_31238" x1="10.5" y1="0" x2="10.5" y2="20.874" gradientUnits="userSpaceOnUse">
<stop stop-color="#7E92F8"/>
<stop offset="1" stop-color="#6972F0"/>
</linearGradient>
</defs>
</svg>
