<svg width="139" height="151" viewBox="0 0 139 151" fill="none" xmlns="http://www.w3.org/2000/svg">
<path fill-rule="evenodd" clip-rule="evenodd" d="M34.1986 63.1972C36.7491 26.4506 50.9725 0 69.3241 0C78.2626 0 86.2403 6.29777 92.3792 17.0155C88.3701 17.8591 84.4036 18.8848 80.4928 20.0893C76.9755 14.6755 73.0786 11.5555 69.3241 11.5555C61.2871 11.5555 52.6214 25.6533 48.3627 47.0368C48.685 46.838 49.0024 46.6375 49.3186 46.4379C50.0497 45.9763 50.774 45.519 51.5359 45.0955C68.6598 35.4581 86.4538 29.091 101.674 27.1728C118.655 25.0293 130.868 28.7328 136.105 37.5555C140.5 44.951 139.136 54.7328 132.457 65.4968C129.848 62.631 126.9 59.7883 123.798 56.9861C126.829 51.2777 127.641 46.4012 125.832 43.3332C123.821 39.9475 118.376 38.1448 110.683 38.1448C108.172 38.1544 105.664 38.3204 103.174 38.6417C89.4788 40.375 73.2388 46.2221 57.4614 55.0968C53.6352 57.3321 49.894 59.7025 46.2452 62.2034C45.9249 65.7914 45.6936 69.4487 45.6461 73.2852C41.3577 69.9861 37.4905 66.6061 34.1986 63.1972ZM2.54891 37.5555C6.92625 30.1773 16.2385 26.4275 29.1036 26.6528C27.8521 30.3102 26.7844 34.1928 25.8591 38.2777C19.3465 38.5955 14.6192 40.3115 12.8398 43.3332C10.2181 47.7359 12.8813 55.7439 19.9752 64.7919C28.3384 75.475 41.6602 86.2389 57.4614 95.1251C61.3061 97.2982 65.2485 99.3031 69.2766 101.134C72.7049 99.5509 76.157 97.858 79.5853 95.9918C78.7075 101.631 77.5508 106.525 76.2519 110.725C70.2968 113.545 64.3417 115.96 58.529 117.901L54.6143 119.08C50.6284 120.293 47.1527 121.2 43.9972 121.853C43.9842 121.856 43.9716 121.86 43.9593 121.863C43.8871 121.882 43.8241 121.899 43.7481 121.899L42.4491 122.171C40.5985 122.529 38.7895 122.818 36.9804 123.049C33.8486 123.454 30.8415 123.656 28.0359 123.656C15.7106 123.656 6.81355 119.866 2.54891 112.666C-1.85215 105.259 -0.487942 95.4949 6.16703 84.7483C8.93429 87.7002 11.8336 90.5322 14.8565 93.2358C11.8196 98.9442 11.007 103.821 12.8398 106.889C15.4318 111.291 23.884 113.048 35.4501 111.586C41.5001 110.818 48.078 109.171 54.8694 106.889C54.3549 106.609 53.8368 106.342 53.3206 106.077C52.7179 105.767 52.1179 105.459 51.53 105.132C34.4062 95.4891 19.8566 83.662 10.5444 71.7945C9.52418 70.5061 8.71158 69.3332 7.97016 68.2296C-0.232895 56.3794 -2.2199 45.5866 2.54891 37.5555ZM82.7408 55.9923C87.8121 54.0337 92.7707 52.4737 97.4505 51.4106C110.055 59.6959 120.737 69.0385 128.104 78.4274C138.507 91.6758 141.337 103.844 136.099 112.666C131.835 119.866 122.938 123.656 110.612 123.656C110.449 123.656 110.27 123.64 110.09 123.624C109.911 123.608 109.731 123.592 109.568 123.592C110.846 119.789 111.921 115.924 112.789 112.014C119.349 111.696 124.005 109.934 125.832 106.889C128.424 102.486 125.767 94.478 118.697 85.4243C114.995 80.7327 110.221 76.0123 104.794 71.4305C104.804 71.965 104.827 72.491 104.85 73.0158C104.881 73.7106 104.912 74.4033 104.912 75.111C104.912 115.486 91.3116 146.455 72.7524 149.881C71.6373 150.106 70.5103 150.222 69.3241 150.222C60.3855 150.222 52.4079 143.924 46.2689 133.206C50.1421 132.415 54.122 131.352 58.1553 130.115C61.6726 135.575 65.5695 138.666 69.3241 138.666C69.9943 138.666 70.7357 138.557 71.4593 138.325C82.0468 135.188 93.0495 109.188 93.0495 75.111C93.0495 70.5754 92.7707 66.2883 92.403 62.0879C89.2949 60.0137 86.0979 57.9337 82.7408 55.9923Z" fill="url(#paint0_linear_101_20147)"/>
<g filter="url(#filter0_d_101_20147)">
<circle cx="66.5" cy="74.5" r="38.5" fill="white"/>
<path d="M79.8584 93L76.102 89.2388C74.7856 90.2483 73.3168 91.038 71.6955 91.6079C70.0902 92.1777 68.3966 92.4627 66.6147 92.4627C64.3352 92.4627 62.1922 92.0068 60.1856 91.095C58.1789 90.1669 56.4131 88.8969 54.8881 87.2849C53.3631 85.6567 52.1671 83.768 51.3003 81.6187C50.4334 79.4695 50 77.1737 50 74.7313C50 72.289 50.4334 70.0014 51.3003 67.8684C52.1671 65.7191 53.3631 63.8304 54.8881 62.2022C56.4131 60.5739 58.1789 59.3039 60.1856 58.3921C62.1922 57.464 64.3352 57 66.6147 57C68.9103 57 71.0614 57.464 73.068 58.3921C75.0746 59.3039 76.8404 60.5739 78.3654 62.2022C79.8905 63.8304 81.0784 65.7191 81.9292 67.8684C82.796 70.0014 83.2295 72.289 83.2295 74.7313C83.2295 76.6364 82.9566 78.4518 82.4108 80.1777C81.865 81.8874 81.1185 83.4668 80.1714 84.9159L84 88.7992L79.8584 93ZM66.6147 86.5034C67.5458 86.5034 68.4608 86.365 69.3598 86.0882C70.2587 85.7951 71.0855 85.3881 71.8399 84.867L68.7819 81.7653L72.9235 77.54L75.7889 80.4708C76.3026 79.6242 76.6879 78.7123 76.9448 77.7354C77.2177 76.7585 77.3541 75.7571 77.3541 74.7313C77.3541 73.1031 77.0732 71.5807 76.5113 70.1642C75.9495 68.7476 75.1709 67.502 74.1756 66.4274C73.1964 65.3365 72.0567 64.4898 70.7564 63.8874C69.4721 63.2687 68.0916 62.9593 66.6147 62.9593C65.1379 62.9593 63.7493 63.2687 62.449 63.8874C61.1487 64.5061 60.0009 65.3609 59.0057 66.4518C58.0264 67.5265 57.2559 68.772 56.6941 70.1886C56.1483 71.6052 55.8754 73.1194 55.8754 74.7313C55.8754 76.3433 56.1563 77.8657 56.7181 79.2985C57.28 80.7151 58.0505 81.9688 59.0297 83.0597C60.025 84.1343 61.1648 84.981 62.449 85.5997C63.7493 86.2022 65.1379 86.5034 66.6147 86.5034Z" fill="url(#paint1_linear_101_20147)"/>
</g>
<defs>
<filter id="filter0_d_101_20147" x="28" y="36" width="102" height="101" filterUnits="userSpaceOnUse" color-interpolation-filters="sRGB">
<feFlood flood-opacity="0" result="BackgroundImageFix"/>
<feColorMatrix in="SourceAlpha" type="matrix" values="0 0 0 0 0 0 0 0 0 0 0 0 0 0 0 0 0 0 127 0" result="hardAlpha"/>
<feOffset dx="13" dy="12"/>
<feGaussianBlur stdDeviation="6"/>
<feComposite in2="hardAlpha" operator="out"/>
<feColorMatrix type="matrix" values="0 0 0 0 0.0758333 0 0 0 0 0.1036 0 0 0 0 0.175 0 0 0 0.1 0"/>
<feBlend mode="normal" in2="BackgroundImageFix" result="effect1_dropShadow_101_20147"/>
<feBlend mode="normal" in="SourceGraphic" in2="effect1_dropShadow_101_20147" result="shape"/>
</filter>
<linearGradient id="paint0_linear_101_20147" x1="69.3333" y1="0" x2="69.3333" y2="150.222" gradientUnits="userSpaceOnUse">
<stop stop-color="#7E92F8"/>
<stop offset="1" stop-color="#6972F0"/>
</linearGradient>
<linearGradient id="paint1_linear_101_20147" x1="67" y1="57" x2="67" y2="93" gradientUnits="userSpaceOnUse">
<stop stop-color="#7E92F8"/>
<stop offset="1" stop-color="#6972F0"/>
</linearGradient>
</defs>
</svg>
