<svg width="81" height="85" viewBox="0 0 81 85" fill="none" xmlns="http://www.w3.org/2000/svg">
<path fill-rule="evenodd" clip-rule="evenodd" d="M18.5036 34.1554C19.8463 14.5862 27.3341 0.5 36.9951 0.5C41.7007 0.5 45.9005 3.85385 49.1323 9.56154C47.0218 10.0108 44.9336 10.557 42.8748 11.1985C41.0232 8.31539 38.9717 6.65385 36.9951 6.65385C32.7641 6.65385 28.2021 14.1615 25.9602 25.5492C26.1298 25.4433 26.2969 25.3366 26.4634 25.2303C26.8483 24.9845 27.2296 24.7409 27.6307 24.5154C36.6454 19.3831 46.013 15.9923 54.0253 14.9708C62.9651 13.8292 69.3943 15.8015 72.1515 20.5C74.4653 24.4385 73.7471 29.6477 70.2312 35.38C68.8573 33.8538 67.3054 32.34 65.6723 30.8477C67.2679 27.8077 67.6957 25.2108 66.7433 23.5769C65.6848 21.7738 62.8183 20.8138 58.7684 20.8138C57.4463 20.8189 56.1259 20.9073 54.8153 21.0785C47.6054 22.0015 39.056 25.1154 30.7501 29.8415C28.7358 31.0319 26.7663 32.2943 24.8454 33.6262C24.6768 35.5369 24.555 37.4846 24.5301 39.5277C22.2725 37.7708 20.2366 35.9708 18.5036 34.1554ZM1.84185 20.5C4.14627 16.5708 9.04862 14.5738 15.8214 14.6938C15.1625 16.6415 14.6004 18.7092 14.1133 20.8846C10.6848 21.0538 8.19617 21.9677 7.25942 23.5769C5.87927 25.9215 7.28127 30.1862 11.0158 35.0046C15.4185 40.6938 22.4317 46.4262 30.7501 51.1585C32.7741 52.3157 34.8496 53.3834 36.9701 54.3585C38.775 53.5154 40.5923 52.6138 42.3971 51.62C41.9349 54.6231 41.326 57.2292 40.6422 59.4662C37.5072 60.9677 34.3722 62.2538 31.3121 63.2877L29.2513 63.9154C27.153 64.5615 25.3232 65.0446 23.662 65.3923C23.6552 65.3941 23.6485 65.3959 23.642 65.3977C23.604 65.4079 23.5708 65.4169 23.5308 65.4169L22.847 65.5615C21.8728 65.7523 20.9204 65.9062 19.9681 66.0292C18.3194 66.2446 16.7362 66.3523 15.2593 66.3523C8.77071 66.3523 4.08694 64.3339 1.84185 60.5C-0.475052 56.5554 0.243127 51.3554 3.74659 45.6323C5.20339 47.2044 6.72969 48.7125 8.32107 50.1523C6.72234 53.1923 6.29456 55.7892 7.25942 57.4231C8.62395 59.7677 13.0735 60.7031 19.1624 59.9246C22.3474 59.5154 25.8103 58.6385 29.3856 57.4231C29.1147 57.274 28.842 57.1322 28.5702 56.9909C28.2529 56.8259 27.9371 56.6617 27.6276 56.4877C18.6129 51.3523 10.9534 45.0538 6.051 38.7338C5.51393 38.0477 5.08615 37.4231 4.69583 36.8354C0.377394 30.5246 -0.668648 24.7769 1.84185 20.5ZM44.0582 30.3185C46.728 29.2754 49.3384 28.4446 51.8021 27.8785C58.4374 32.2908 64.0611 37.2662 67.9392 42.2662C73.4161 49.3215 74.9056 55.8015 72.1484 60.5C69.9033 64.3339 65.2195 66.3523 58.7309 66.3523C58.6451 66.3523 58.5506 66.3438 58.4562 66.3354C58.3617 66.3269 58.2673 66.3185 58.1814 66.3185C58.8538 64.2932 59.4197 62.2351 59.8769 60.1523C63.3304 59.9831 65.7816 59.0446 66.7433 57.4231C68.1079 55.0785 66.709 50.8138 62.9869 45.9923C61.0385 43.4938 58.5249 40.98 55.6678 38.54C55.6731 38.8247 55.6855 39.1048 55.6977 39.3842C55.714 39.7542 55.7302 40.1231 55.7302 40.5C55.7302 62.0015 48.5703 78.4939 38.7999 80.3185C38.2129 80.4385 37.6196 80.5 36.9951 80.5C32.2895 80.5 28.0897 77.1462 24.8579 71.4385C26.8969 71.0169 28.9921 70.4508 31.1154 69.7923C32.9671 72.7 35.0186 74.3462 36.9951 74.3462C37.348 74.3462 37.7383 74.2877 38.1192 74.1646C43.6929 72.4939 49.4852 58.6477 49.4852 40.5C49.4852 38.0846 49.3384 35.8015 49.1448 33.5646C47.5086 32.46 45.8256 31.3523 44.0582 30.3185Z" fill="#D0D0D6"/>
<g filter="url(#filter0_d_1_29491)">
<ellipse cx="35.5083" cy="40.1746" rx="20.268" ry="20.503" fill="white"/>
<path d="M42.5419 50.0266L40.5644 48.0236C39.8715 48.5612 39.0982 48.9818 38.2447 49.2852C37.3996 49.5887 36.508 49.7405 35.5699 49.7405C34.3699 49.7405 33.2417 49.4977 32.1853 49.0121C31.129 48.5179 30.1994 47.8415 29.3965 46.9831C28.5937 46.116 27.9641 45.1101 27.5078 43.9656C27.0514 42.821 26.8232 41.5984 26.8232 40.2977C26.8232 38.9971 27.0514 37.7788 27.5078 36.6429C27.9641 35.4983 28.5937 34.4925 29.3965 33.6254C30.1994 32.7583 31.129 32.0819 32.1853 31.5964C33.2417 31.1021 34.3699 30.855 35.5699 30.855C36.7784 30.855 37.9108 31.1021 38.9672 31.5964C40.0236 32.0819 40.9532 32.7583 41.756 33.6254C42.5588 34.4925 43.1842 35.4983 43.6321 36.6429C44.0885 37.7788 44.3166 38.9971 44.3166 40.2977C44.3166 41.3122 44.173 42.2791 43.8856 43.1982C43.5983 44.1086 43.2053 44.9497 42.7067 45.7215L44.7223 47.7895L42.5419 50.0266ZM35.5699 46.5669C36.0601 46.5669 36.5418 46.4932 37.015 46.3458C37.4883 46.1897 37.9235 45.9729 38.3207 45.6954L36.7108 44.0436L38.8912 41.7935L40.3996 43.3543C40.6701 42.9034 40.8729 42.4178 41.0081 41.8975C41.1518 41.3773 41.2236 40.844 41.2236 40.2977C41.2236 39.4306 41.0757 38.6199 40.7799 37.8655C40.4841 37.1111 40.0743 36.4478 39.5503 35.8755C39.0348 35.2945 38.4348 34.8437 37.7503 34.5228C37.0742 34.1933 36.3474 34.0286 35.5699 34.0286C34.7925 34.0286 34.0615 34.1933 33.3769 34.5228C32.6924 34.8523 32.0882 35.3076 31.5642 35.8885C31.0487 36.4608 30.6431 37.1241 30.3473 37.8785C30.0599 38.6329 29.9163 39.4393 29.9163 40.2977C29.9163 41.1562 30.0642 41.9669 30.36 42.7299C30.6557 43.4843 31.0614 44.152 31.5769 44.733C32.1008 45.3052 32.7009 45.7561 33.3769 46.0856C34.0615 46.4065 34.7925 46.5669 35.5699 46.5669Z" fill="#D0D0D6"/>
</g>
<defs>
<filter id="filter0_d_1_29491" x="15.2402" y="19.6716" width="65.5361" height="65.0061" filterUnits="userSpaceOnUse" color-interpolation-filters="sRGB">
<feFlood flood-opacity="0" result="BackgroundImageFix"/>
<feColorMatrix in="SourceAlpha" type="matrix" values="0 0 0 0 0 0 0 0 0 0 0 0 0 0 0 0 0 0 127 0" result="hardAlpha"/>
<feOffset dx="13" dy="12"/>
<feGaussianBlur stdDeviation="6"/>
<feComposite in2="hardAlpha" operator="out"/>
<feColorMatrix type="matrix" values="0 0 0 0 0.0758333 0 0 0 0 0.1036 0 0 0 0 0.175 0 0 0 0.1 0"/>
<feBlend mode="normal" in2="BackgroundImageFix" result="effect1_dropShadow_1_29491"/>
<feBlend mode="normal" in="SourceGraphic" in2="effect1_dropShadow_1_29491" result="shape"/>
</filter>
</defs>
</svg>
