<svg width="186" height="194" viewBox="0 0 186 194" fill="none" xmlns="http://www.w3.org/2000/svg">
<path d="M98.3513 156.639C137.525 156.639 169.283 124.88 169.283 85.5671C169.283 46.2539 137.385 14.4956 98.3513 14.4956C59.178 14.4956 27.4197 46.2539 27.4197 85.5671C27.4197 124.88 59.178 156.639 98.3513 156.639Z" fill="#EAEEF9"/>
<path d="M173.69 131.423C176.858 131.423 179.426 128.855 179.426 125.687C179.426 122.519 176.858 119.951 173.69 119.951C170.522 119.951 167.954 122.519 167.954 125.687C167.954 128.855 170.522 131.423 173.69 131.423Z" fill="#EAEEF9"/>
<path d="M182.084 109.038C184.248 109.038 186.002 107.284 186.002 105.121C186.002 102.957 184.248 101.204 182.084 101.204C179.921 101.204 178.167 102.957 178.167 105.121C178.167 107.284 179.921 109.038 182.084 109.038Z" fill="#EAEEF9"/>
<path d="M31.1971 38.8386C33.3606 38.8386 35.1144 37.0847 35.1144 34.9212C35.1144 32.7578 33.3606 31.0039 31.1971 31.0039C29.0336 31.0039 27.2798 32.7578 27.2798 34.9212C27.2798 37.0847 29.0336 38.8386 31.1971 38.8386Z" fill="#EAEEF9"/>
<path d="M7.27345 114.387C11.2913 114.387 14.5485 111.13 14.5485 107.112C14.5485 103.095 11.2913 99.8374 7.27345 99.8374C3.25556 99.8374 -0.00158691 103.095 -0.00158691 107.112C-0.00158691 111.13 3.25556 114.387 7.27345 114.387Z" fill="#EAEEF9"/>
<path d="M151.252 87.2452L155.033 86.1056C155.307 86.0261 155.307 85.6286 155.033 85.5491L151.252 84.4095C151.155 84.383 151.084 84.3124 151.058 84.2152L149.918 80.4432C149.839 80.1693 149.441 80.1693 149.362 80.4432L148.222 84.2152C148.196 84.3124 148.125 84.383 148.028 84.4095L144.256 85.5491C143.982 85.6286 143.982 86.0261 144.256 86.1056L148.037 87.2452C148.134 87.2717 148.204 87.3423 148.231 87.4395L149.37 91.2204C149.45 91.4942 149.847 91.4942 149.927 91.2204L151.067 87.4395C151.084 87.3423 151.155 87.2717 151.252 87.2452Z" fill="#ADB6C8"/>
<path d="M128.867 46.674L132.648 45.5345C132.922 45.455 132.922 45.0575 132.648 44.978L128.867 43.8385C128.77 43.812 128.699 43.7414 128.673 43.6442L127.533 39.8724C127.454 39.5985 127.056 39.5985 126.977 39.8724L125.837 43.6442C125.811 43.7414 125.74 43.812 125.643 43.8385L121.871 44.978C121.597 45.0575 121.597 45.455 121.871 45.5345L125.652 46.674C125.749 46.7005 125.82 46.7712 125.846 46.8684L126.986 50.649C127.065 50.9228 127.463 50.9228 127.542 50.649L128.682 46.8684C128.699 46.7712 128.77 46.7005 128.867 46.674Z" fill="#ADB6C8"/>
<path d="M72.0052 51.3943L75.3135 50.3972C75.5531 50.3277 75.5531 49.9799 75.3135 49.9103L72.0052 48.9132C71.9202 48.8901 71.8584 48.8282 71.8352 48.7432L70.8381 45.4429C70.7685 45.2033 70.4207 45.2033 70.3511 45.4429L69.354 48.7432C69.3308 48.8282 69.269 48.8901 69.184 48.9132L65.8834 49.9103C65.6438 49.9799 65.6438 50.3277 65.8834 50.3972L69.1917 51.3943C69.2767 51.4175 69.3385 51.4793 69.3617 51.5643L70.3588 54.8724C70.4284 55.112 70.7762 55.112 70.8458 54.8724L71.8429 51.5643C71.8584 51.4793 71.9202 51.4175 72.0052 51.3943Z" fill="#ADB6C8"/>
<path d="M48.2214 112.153L51.5297 111.014C51.7693 110.934 51.7693 110.537 51.5297 110.457L48.2214 109.318C48.1364 109.291 48.0746 109.221 48.0514 109.123L47.0543 105.351C46.9847 105.078 46.6369 105.078 46.5673 105.351L45.5702 109.123C45.547 109.221 45.4852 109.291 45.4001 109.318L42.0996 110.457C41.86 110.537 41.86 110.934 42.0996 111.014L45.4079 112.153C45.4929 112.18 45.5547 112.251 45.5779 112.348L46.575 116.129C46.6446 116.402 46.9924 116.402 47.062 116.129L48.0591 112.348C48.0746 112.251 48.1364 112.18 48.2214 112.153Z" fill="#ADB6C8"/>
<path d="M42.9248 69.0663L45.2878 68.3541C45.459 68.3044 45.459 68.056 45.2878 68.0063L42.9248 67.2941C42.864 67.2776 42.8199 67.2334 42.8033 67.1727L42.0911 64.8154C42.0414 64.6442 41.793 64.6442 41.7433 64.8154L41.031 67.1727C41.0145 67.2334 40.9703 67.2776 40.9096 67.2941L38.5521 68.0063C38.3809 68.056 38.3809 68.3044 38.5521 68.3541L40.9151 69.0663C40.9758 69.0828 41.02 69.127 41.0366 69.1877L41.7488 71.5506C41.7985 71.7217 42.0469 71.7217 42.0966 71.5506L42.8088 69.1877C42.8199 69.127 42.864 69.0828 42.9248 69.0663Z" fill="#ADB6C8"/>
<path d="M68.1069 92.4388L70.4699 91.7267C70.6411 91.677 70.6411 91.4286 70.4699 91.3789L68.1069 90.6667C68.0462 90.6501 68.002 90.606 67.9854 90.5452L67.2732 88.1879C67.2235 88.0168 66.9751 88.0168 66.9254 88.1879L66.2132 90.5452C66.1966 90.606 66.1524 90.6501 66.0917 90.6667L63.7342 91.3789C63.563 91.4286 63.563 91.677 63.7342 91.7267L66.0972 92.4388C66.158 92.4554 66.2021 92.4996 66.2187 92.5603L66.9309 94.9231C66.9806 95.0943 67.2291 95.0943 67.2787 94.9231L67.991 92.5603C68.002 92.4996 68.0462 92.4554 68.1069 92.4388Z" fill="#ADB6C8"/>
<path d="M88.1439 25.8558L90.5069 25.1437C90.6781 25.094 90.6781 24.8455 90.5069 24.7959L88.1439 24.0837C88.0832 24.0671 88.039 24.023 88.0224 23.9622L87.3102 21.6049C87.2605 21.4338 87.0121 21.4338 86.9624 21.6049L86.2502 23.9622C86.2336 24.023 86.1894 24.0671 86.1287 24.0837L83.7712 24.7959C83.6 24.8455 83.6 25.094 83.7712 25.1437L86.1342 25.8558C86.1949 25.8724 86.2391 25.9166 86.2557 25.9773L86.9679 28.3401C87.0176 28.5113 87.266 28.5113 87.3157 28.3401L88.028 25.9773C88.039 25.9166 88.0832 25.8724 88.1439 25.8558Z" fill="#ADB6C8"/>
<path d="M144.138 127.079L146.501 126.367C146.672 126.317 146.672 126.069 146.501 126.019L144.138 125.307C144.077 125.29 144.033 125.246 144.016 125.185L143.304 122.828C143.254 122.657 143.006 122.657 142.956 122.828L142.244 125.185C142.227 125.246 142.183 125.29 142.122 125.307L139.765 126.019C139.594 126.069 139.594 126.317 139.765 126.367L142.128 127.079C142.189 127.096 142.233 127.14 142.249 127.2L142.962 129.563C143.011 129.734 143.26 129.734 143.31 129.563L144.022 127.2C144.033 127.14 144.077 127.096 144.138 127.079Z" fill="#ADB6C8"/>
<path d="M77.4573 96.4102C71.5075 100.745 63.6879 107.035 63.6879 112.559C63.6879 116.188 63.6879 121.539 63.6879 124.786C63.6879 125.727 65.0083 126.27 65.7539 125.695C68.418 123.64 73.675 120.757 81.6221 121.484C93.6916 122.589 79.4972 102.36 79.4972 102.36L77.4573 96.4102Z" fill="url(#paint0_linear_1_16851)"/>
<path d="M120.721 96.4102C126.67 100.83 134.49 107.035 134.49 112.559C134.49 116.188 134.49 121.539 134.49 124.786C134.49 125.727 133.17 126.27 132.424 125.695C129.76 123.64 124.503 120.757 116.556 121.484C104.486 122.589 118.681 102.36 118.681 102.36L120.721 96.4102Z" fill="url(#paint1_linear_1_16851)"/>
<g filter="url(#filter0_d_1_16851)">
<path d="M99.0463 35.5532C87.8268 43.5429 74.3974 63.1771 76.8623 88.166C79.2422 113.155 81.3671 125.479 85.9569 128.454C90.6317 131.429 95.2215 132.109 99.0463 132.109C102.871 132.109 107.461 131.429 112.136 128.454C116.811 125.479 118.851 113.155 121.23 88.166C123.61 63.1771 110.181 43.5429 99.0463 35.5532Z" fill="url(#paint2_linear_1_16851)"/>
</g>
<g filter="url(#filter1_d_1_16851)">
<path d="M107.546 135.594H90.5468C89.1868 135.594 88.1669 134.489 88.1669 133.214V129.049H110.011V133.129C109.926 134.489 108.821 135.594 107.546 135.594Z" fill="url(#paint3_linear_1_16851)"/>
</g>
<path d="M100.236 95.0508H97.8563V126.414H100.236V95.0508Z" fill="url(#paint4_linear_1_16851)"/>
<path d="M99.0465 77.967C103.694 77.967 107.461 74.1996 107.461 69.5523C107.461 64.9051 103.694 61.1377 99.0465 61.1377C94.3992 61.1377 90.6318 64.9051 90.6318 69.5523C90.6318 74.1996 94.3992 77.967 99.0465 77.967Z" stroke="#9FA8BA" stroke-width="4" stroke-miterlimit="10"/>
<path d="M110.691 151.828C110.691 158.713 105.166 193.221 98.2814 193.221C91.3967 193.221 85.8719 158.713 85.8719 151.828C85.8719 144.943 91.3967 139.418 98.2814 139.418C105.166 139.418 110.691 145.028 110.691 151.828Z" fill="#EAEEF9"/>
<path d="M98.2814 177.327C95.8165 172.057 93.0116 157.438 93.0116 152.763C93.0116 149.873 95.3915 147.493 98.2814 147.493C101.171 147.493 103.551 149.873 103.551 152.763C103.551 157.438 100.746 171.972 98.2814 177.327Z" fill="white"/>
<circle cx="178.489" cy="28.2788" r="7.5" fill="url(#paint5_linear_1_16851)"/>
<circle cx="20.0557" cy="10.7788" r="10" fill="url(#paint6_linear_1_16851)"/>
<circle cx="10.0557" cy="133.779" r="5" fill="url(#paint7_linear_1_16851)"/>
<circle cx="165.556" cy="161.279" r="2.5" fill="url(#paint8_linear_1_16851)"/>
<circle cx="106.556" cy="5.27881" r="2.5" fill="url(#paint9_linear_1_16851)"/>
<circle cx="62.5557" cy="177.279" r="3.5" fill="url(#paint10_linear_1_16851)"/>
<circle cx="122.056" cy="171.779" r="1" fill="url(#paint11_linear_1_16851)"/>
<circle cx="170.556" cy="111.279" r="2.5" fill="url(#paint12_linear_1_16851)"/>
<circle cx="1.05566" cy="75.7788" r="1" fill="url(#paint13_linear_1_16851)"/>
<defs>
<filter id="filter0_d_1_16851" x="54.5665" y="24.5532" width="88.9408" height="140.556" filterUnits="userSpaceOnUse" color-interpolation-filters="sRGB">
<feFlood flood-opacity="0" result="BackgroundImageFix"/>
<feColorMatrix in="SourceAlpha" type="matrix" values="0 0 0 0 0 0 0 0 0 0 0 0 0 0 0 0 0 0 127 0" result="hardAlpha"/>
<feOffset dy="11"/>
<feGaussianBlur stdDeviation="11"/>
<feColorMatrix type="matrix" values="0 0 0 0 0.397708 0 0 0 0 0.47749 0 0 0 0 0.575 0 0 0 0.27 0"/>
<feBlend mode="normal" in2="BackgroundImageFix" result="effect1_dropShadow_1_16851"/>
<feBlend mode="normal" in="SourceGraphic" in2="effect1_dropShadow_1_16851" result="shape"/>
</filter>
<filter id="filter1_d_1_16851" x="66.1669" y="118.049" width="65.8441" height="50.5449" filterUnits="userSpaceOnUse" color-interpolation-filters="sRGB">
<feFlood flood-opacity="0" result="BackgroundImageFix"/>
<feColorMatrix in="SourceAlpha" type="matrix" values="0 0 0 0 0 0 0 0 0 0 0 0 0 0 0 0 0 0 127 0" result="hardAlpha"/>
<feOffset dy="11"/>
<feGaussianBlur stdDeviation="11"/>
<feColorMatrix type="matrix" values="0 0 0 0 0.397708 0 0 0 0 0.47749 0 0 0 0 0.575 0 0 0 0.27 0"/>
<feBlend mode="normal" in2="BackgroundImageFix" result="effect1_dropShadow_1_16851"/>
<feBlend mode="normal" in="SourceGraphic" in2="effect1_dropShadow_1_16851" result="shape"/>
</filter>
<linearGradient id="paint0_linear_1_16851" x1="75.0887" y1="97.4938" x2="75.0887" y2="115.002" gradientUnits="userSpaceOnUse">
<stop stop-color="#B0BACC"/>
<stop offset="1" stop-color="#969EAE"/>
</linearGradient>
<linearGradient id="paint1_linear_1_16851" x1="123.093" y1="97.4938" x2="123.093" y2="115.002" gradientUnits="userSpaceOnUse">
<stop stop-color="#B0BACC"/>
<stop offset="1" stop-color="#969EAE"/>
</linearGradient>
<linearGradient id="paint2_linear_1_16851" x1="99.0223" y1="33.3198" x2="99.0223" y2="133.15" gradientUnits="userSpaceOnUse">
<stop stop-color="#FDFEFF"/>
<stop offset="0.9964" stop-color="#ECF0F5"/>
</linearGradient>
<linearGradient id="paint3_linear_1_16851" x1="99.0818" y1="128.897" x2="99.0818" y2="135.664" gradientUnits="userSpaceOnUse">
<stop stop-color="#FDFEFF"/>
<stop offset="0.9964" stop-color="#ECF0F5"/>
</linearGradient>
<linearGradient id="paint4_linear_1_16851" x1="99.0465" y1="96.1403" x2="99.0465" y2="113.744" gradientUnits="userSpaceOnUse">
<stop stop-color="#B0BACC"/>
<stop offset="1" stop-color="#969EAE"/>
</linearGradient>
<linearGradient id="paint5_linear_1_16851" x1="178.489" y1="20.7788" x2="178.489" y2="35.7788" gradientUnits="userSpaceOnUse">
<stop stop-color="#7E92F8"/>
<stop offset="1" stop-color="#6972F0"/>
</linearGradient>
<linearGradient id="paint6_linear_1_16851" x1="20.0557" y1="0.778809" x2="20.0557" y2="20.7788" gradientUnits="userSpaceOnUse">
<stop stop-color="#7E92F8"/>
<stop offset="1" stop-color="#6972F0"/>
</linearGradient>
<linearGradient id="paint7_linear_1_16851" x1="10.0557" y1="128.779" x2="10.0557" y2="138.779" gradientUnits="userSpaceOnUse">
<stop stop-color="#7E92F8"/>
<stop offset="1" stop-color="#6972F0"/>
</linearGradient>
<linearGradient id="paint8_linear_1_16851" x1="165.556" y1="158.779" x2="165.556" y2="163.779" gradientUnits="userSpaceOnUse">
<stop stop-color="#7E92F8"/>
<stop offset="1" stop-color="#6972F0"/>
</linearGradient>
<linearGradient id="paint9_linear_1_16851" x1="106.556" y1="2.77881" x2="106.556" y2="7.77881" gradientUnits="userSpaceOnUse">
<stop stop-color="#7E92F8"/>
<stop offset="1" stop-color="#6972F0"/>
</linearGradient>
<linearGradient id="paint10_linear_1_16851" x1="62.5557" y1="173.779" x2="62.5557" y2="180.779" gradientUnits="userSpaceOnUse">
<stop stop-color="#7E92F8"/>
<stop offset="1" stop-color="#6972F0"/>
</linearGradient>
<linearGradient id="paint11_linear_1_16851" x1="122.056" y1="170.779" x2="122.056" y2="172.779" gradientUnits="userSpaceOnUse">
<stop stop-color="#7E92F8"/>
<stop offset="1" stop-color="#6972F0"/>
</linearGradient>
<linearGradient id="paint12_linear_1_16851" x1="170.556" y1="108.779" x2="170.556" y2="113.779" gradientUnits="userSpaceOnUse">
<stop stop-color="#7E92F8"/>
<stop offset="1" stop-color="#6972F0"/>
</linearGradient>
<linearGradient id="paint13_linear_1_16851" x1="1.05566" y1="74.7788" x2="1.05566" y2="76.7788" gradientUnits="userSpaceOnUse">
<stop stop-color="#7E92F8"/>
<stop offset="1" stop-color="#6972F0"/>
</linearGradient>
</defs>
</svg>
