<svg width="174" height="31" viewBox="0 0 174 31" fill="none" xmlns="http://www.w3.org/2000/svg">
<path d="M25.7672 30.84L22.6472 27.76C21.5539 28.5867 20.3339 29.2333 18.9872 29.7C17.6539 30.1667 16.2472 30.4 14.7672 30.4C12.8739 30.4 11.0939 30.0267 9.42719 29.28C7.76052 28.52 6.29385 27.48 5.02719 26.16C3.76052 24.8267 2.76719 23.28 2.04719 21.52C1.32719 19.76 0.967188 17.88 0.967188 15.88C0.967188 13.88 1.32719 12.0067 2.04719 10.26C2.76719 8.5 3.76052 6.95333 5.02719 5.62C6.29385 4.28667 7.76052 3.24667 9.42719 2.5C11.0939 1.74 12.8739 1.36 14.7672 1.36C16.6739 1.36 18.4605 1.74 20.1272 2.5C21.7939 3.24667 23.2605 4.28667 24.5272 5.62C25.7939 6.95333 26.7805 8.5 27.4872 10.26C28.2072 12.0067 28.5672 13.88 28.5672 15.88C28.5672 17.44 28.3405 18.9267 27.8872 20.34C27.4339 21.74 26.8139 23.0333 26.0272 24.22L29.2072 27.4L25.7672 30.84ZM14.7672 25.52C15.5405 25.52 16.3005 25.4067 17.0472 25.18C17.7939 24.94 18.4805 24.6067 19.1072 24.18L16.5672 21.64L20.0072 18.18L22.3872 20.58C22.8139 19.8867 23.1339 19.14 23.3472 18.34C23.5739 17.54 23.6872 16.72 23.6872 15.88C23.6872 14.5467 23.4539 13.3 22.9872 12.14C22.5205 10.98 21.8739 9.96 21.0472 9.08C20.2339 8.18667 19.2872 7.49333 18.2072 7C17.1405 6.49333 15.9939 6.24 14.7672 6.24C13.5405 6.24 12.3872 6.49333 11.3072 7C10.2272 7.50666 9.27385 8.20666 8.44719 9.1C7.63385 9.98 6.99385 11 6.52719 12.16C6.07385 13.32 5.84719 14.56 5.84719 15.88C5.84719 17.2 6.08052 18.4467 6.54719 19.62C7.01385 20.78 7.65385 21.8067 8.46719 22.7C9.29385 23.58 10.2405 24.2733 11.3072 24.78C12.3872 25.2733 13.5405 25.52 14.7672 25.52ZM31.7875 22.6V10H36.6675V21.32C36.6675 22.1067 36.8608 22.8267 37.2475 23.48C37.6342 24.12 38.1475 24.6333 38.7875 25.02C39.4408 25.3933 40.1542 25.58 40.9275 25.58C41.7275 25.58 42.4475 25.3933 43.0875 25.02C43.7275 24.6333 44.2408 24.12 44.6275 23.48C45.0142 22.8267 45.2075 22.1067 45.2075 21.32V10H50.0875L50.1075 30H45.2275L45.2075 28.18C44.5142 28.9 43.6942 29.4733 42.7475 29.9C41.8008 30.3133 40.7875 30.52 39.7075 30.52C38.2542 30.52 36.9275 30.1667 35.7275 29.46C34.5275 28.74 33.5675 27.7867 32.8475 26.6C32.1408 25.4 31.7875 24.0667 31.7875 22.6ZM64.8681 9.44C66.8148 9.44 68.5881 9.91333 70.1881 10.86C71.7881 11.8067 73.0615 13.08 74.0081 14.68C74.9548 16.2667 75.4281 18.0267 75.4281 19.96C75.4281 21.4133 75.1548 22.78 74.6081 24.06C74.0615 25.34 73.3015 26.4667 72.3281 27.44C71.3681 28.4 70.2481 29.1533 68.9681 29.7C67.7015 30.2467 66.3348 30.52 64.8681 30.52C63.6148 30.52 62.5015 30.24 61.5281 29.68C60.5681 29.1067 59.7615 28.3667 59.1081 27.46V30H54.2281V-2.38419e-06H59.1081V12.5C59.7615 11.5933 60.5681 10.86 61.5281 10.3C62.5015 9.72667 63.6148 9.44 64.8681 9.44ZM64.8081 25.8C65.8481 25.8 66.7881 25.54 67.6281 25.02C68.4815 24.4867 69.1615 23.78 69.6681 22.9C70.1748 22.02 70.4281 21.04 70.4281 19.96C70.4281 18.8933 70.1748 17.92 69.6681 17.04C69.1615 16.1467 68.4815 15.44 67.6281 14.92C66.7748 14.4 65.8348 14.14 64.8081 14.14C63.7948 14.14 62.8881 14.4067 62.0881 14.94C61.2881 15.46 60.6615 16.1667 60.2081 17.06C59.7548 17.94 59.5281 18.9067 59.5281 19.96C59.5281 21.04 59.7548 22.0267 60.2081 22.92C60.6615 23.8 61.2881 24.5 62.0881 25.02C62.8881 25.54 63.7948 25.8 64.8081 25.8ZM78.1344 10H83.0144V30H78.1344V10ZM80.6144 7.42C79.8944 7.42 79.2877 7.18667 78.7944 6.72C78.301 6.24 78.0544 5.64 78.0544 4.92C78.0544 4.21333 78.301 3.62 78.7944 3.14C79.2877 2.66 79.8877 2.42 80.5944 2.42C81.301 2.42 81.8944 2.66 82.3744 3.14C82.8677 3.62 83.1144 4.21333 83.1144 4.92C83.1144 5.64 82.8744 6.24 82.3944 6.72C81.9144 7.18667 81.321 7.42 80.6144 7.42ZM105.76 30H100.14L95.58 22.14L92.78 25.48V30H87.9V-2.38419e-06H92.78V17.9L99.4 10H105.78L98.92 18.18L105.76 30ZM116.427 30.52C114.587 30.52 112.907 30.0467 111.387 29.1C109.88 28.1533 108.673 26.8867 107.767 25.3C106.873 23.7 106.427 21.9333 106.427 20C106.427 18.5333 106.687 17.1667 107.207 15.9C107.727 14.62 108.44 13.5 109.347 12.54C110.267 11.5667 111.333 10.8067 112.547 10.26C113.76 9.71333 115.053 9.44 116.427 9.44C118.267 9.44 119.94 9.91333 121.447 10.86C122.967 11.8067 124.173 13.08 125.067 14.68C125.973 16.28 126.427 18.0533 126.427 20C126.427 21.4533 126.167 22.8133 125.647 24.08C125.127 25.3467 124.407 26.4667 123.487 27.44C122.58 28.4 121.52 29.1533 120.307 29.7C119.107 30.2467 117.813 30.52 116.427 30.52ZM116.427 25.64C117.4 25.64 118.273 25.38 119.047 24.86C119.82 24.34 120.427 23.6533 120.867 22.8C121.32 21.9467 121.547 21.0133 121.547 20C121.547 18.96 121.313 18.0133 120.847 17.16C120.393 16.2933 119.773 15.6067 118.987 15.1C118.213 14.58 117.36 14.32 116.427 14.32C115.467 14.32 114.6 14.58 113.827 15.1C113.053 15.62 112.44 16.3133 111.987 17.18C111.533 18.0467 111.307 18.9867 111.307 20C111.307 21.0533 111.54 22.0067 112.007 22.86C112.473 23.7133 113.093 24.3933 113.867 24.9C114.653 25.3933 115.507 25.64 116.427 25.64ZM148.979 2H154.599L164.779 30H159.599L157.799 25.04H145.799L143.999 30H138.819L148.979 2ZM147.579 20.16H155.999L151.779 8.62L147.579 20.16ZM168.734 30V2H173.614V30H168.734Z" fill="#212121"/>
</svg>
