<svg width="320" height="237" viewBox="0 0 320 237" fill="none" xmlns="http://www.w3.org/2000/svg">
<path d="M158.127 236.3C220.723 236.3 271.47 185.553 271.47 122.733C271.47 59.9135 220.499 9.16602 158.127 9.16602C95.5307 9.16602 44.7832 59.9135 44.7832 122.733C44.7832 185.553 95.5307 236.3 158.127 236.3Z" fill="#EAEEF9"/>
<path d="M277.506 12.5192C280.963 12.5192 283.765 9.71668 283.765 6.2596C283.765 2.80252 280.963 0 277.506 0C274.049 0 271.246 2.80252 271.246 6.2596C271.246 9.71668 274.049 12.5192 277.506 12.5192Z" fill="#E7EBF6"/>
<path d="M50.8192 48.0646C54.2763 48.0646 57.0788 45.2621 57.0788 41.805C57.0788 38.3479 54.2763 35.5454 50.8192 35.5454C47.3621 35.5454 44.5596 38.3479 44.5596 41.805C44.5596 45.2621 47.3621 48.0646 50.8192 48.0646Z" fill="#E7EBF6"/>
<path d="M12.5908 168.786C19.0111 168.786 24.2158 163.581 24.2158 157.161C24.2158 150.74 19.0111 145.536 12.5908 145.536C6.1705 145.536 0.96582 150.74 0.96582 157.161C0.96582 163.581 6.1705 168.786 12.5908 168.786Z" fill="#E7EBF6"/>
<g filter="url(#filter0_d_1_23801)">
<path d="M266.13 63.0807V194.617C266.13 198.476 262.914 201.692 259.054 201.692H59.1778C55.3186 201.853 52.1025 198.637 52.1025 194.777V63.0807C52.1025 59.0606 55.3186 56.0054 59.1778 56.0054H259.054C263.074 56.0054 266.13 59.2214 266.13 63.0807Z" fill="url(#paint0_linear_1_23801)"/>
</g>
<path d="M266.13 63.0807V73.2112H52.1025V63.0807C52.1025 59.0606 55.3186 56.0054 59.1778 56.0054H259.054C263.074 56.0054 266.13 59.2214 266.13 63.0807Z" fill="url(#paint1_linear_1_23801)"/>
<path d="M129.609 124.186C132.895 124.186 135.559 121.522 135.559 118.236C135.559 114.95 132.895 112.287 129.609 112.287C126.323 112.287 123.659 114.95 123.659 118.236C123.659 121.522 126.323 124.186 129.609 124.186Z" fill="url(#paint2_linear_1_23801)"/>
<path d="M188.784 124.186C192.07 124.186 194.733 121.522 194.733 118.236C194.733 114.95 192.07 112.287 188.784 112.287C185.498 112.287 182.834 114.95 182.834 118.236C182.834 121.522 185.498 124.186 188.784 124.186Z" fill="url(#paint3_linear_1_23801)"/>
<path d="M168.844 163.26H150.191C147.297 163.26 144.885 160.848 144.885 157.953C144.885 155.059 147.297 152.647 150.191 152.647H168.683C171.578 152.647 173.99 155.059 173.99 157.953C174.151 160.848 171.739 163.26 168.844 163.26Z" fill="url(#paint4_linear_1_23801)"/>
<path d="M61.5898 67.5828C62.9219 67.5828 64.0018 66.5029 64.0018 65.1708C64.0018 63.8387 62.9219 62.7588 61.5898 62.7588C60.2576 62.7588 59.1777 63.8387 59.1777 65.1708C59.1777 66.5029 60.2576 67.5828 61.5898 67.5828Z" fill="#F9FAFB"/>
<path d="M69.1474 67.5828C70.4795 67.5828 71.5594 66.5029 71.5594 65.1708C71.5594 63.8387 70.4795 62.7588 69.1474 62.7588C67.8153 62.7588 66.7354 63.8387 66.7354 65.1708C66.7354 66.5029 67.8153 67.5828 69.1474 67.5828Z" fill="#F9FAFB"/>
<path d="M76.8661 67.5828C78.1983 67.5828 79.2782 66.5029 79.2782 65.1708C79.2782 63.8387 78.1983 62.7588 76.8661 62.7588C75.534 62.7588 74.4541 63.8387 74.4541 65.1708C74.4541 66.5029 75.534 67.5828 76.8661 67.5828Z" fill="#F9FAFB"/>
<path d="M257.446 38.9606C255.838 38.9606 254.552 37.6742 254.552 36.0662V3.74502C254.552 2.137 255.838 0.850586 257.446 0.850586C259.054 0.850586 260.341 2.137 260.341 3.74502V36.0662C260.341 37.6742 259.054 38.9606 257.446 38.9606Z" fill="#989FB0"/>
<path d="M280.923 63.7245C280.923 62.1165 282.209 60.8301 283.817 60.8301H316.138C317.746 60.8301 319.033 62.1165 319.033 63.7245C319.033 65.3325 317.746 66.6189 316.138 66.6189H283.817C282.209 66.6189 280.923 65.3325 280.923 63.7245Z" fill="#989FB0"/>
<path d="M278.351 42.8194C277.225 41.6937 277.225 39.7641 278.351 38.6385L301.346 15.8047C302.471 14.679 304.401 14.679 305.527 15.8047C306.652 16.9303 306.652 18.8599 305.527 19.9855L282.693 42.8194C281.406 43.945 279.477 43.945 278.351 42.8194Z" fill="#989FB0"/>
<defs>
<filter id="filter0_d_1_23801" x="30.1025" y="45.0054" width="258.027" height="189.692" filterUnits="userSpaceOnUse" color-interpolation-filters="sRGB">
<feFlood flood-opacity="0" result="BackgroundImageFix"/>
<feColorMatrix in="SourceAlpha" type="matrix" values="0 0 0 0 0 0 0 0 0 0 0 0 0 0 0 0 0 0 127 0" result="hardAlpha"/>
<feOffset dy="11"/>
<feGaussianBlur stdDeviation="11"/>
<feColorMatrix type="matrix" values="0 0 0 0 0.397708 0 0 0 0 0.47749 0 0 0 0 0.575 0 0 0 0.27 0"/>
<feBlend mode="normal" in2="BackgroundImageFix" result="effect1_dropShadow_1_23801"/>
<feBlend mode="normal" in="SourceGraphic" in2="effect1_dropShadow_1_23801" result="shape"/>
</filter>
<linearGradient id="paint0_linear_1_23801" x1="159.046" y1="52.6354" x2="159.046" y2="203.268" gradientUnits="userSpaceOnUse">
<stop stop-color="#FDFEFF"/>
<stop offset="0.9964" stop-color="#ECF0F5"/>
</linearGradient>
<linearGradient id="paint1_linear_1_23801" x1="257.64" y1="56.0054" x2="58.9991" y2="64.6083" gradientUnits="userSpaceOnUse">
<stop stop-color="#B0BACC"/>
<stop offset="1" stop-color="#969EAE"/>
</linearGradient>
<linearGradient id="paint2_linear_1_23801" x1="129.609" y1="112.287" x2="129.609" y2="124.186" gradientUnits="userSpaceOnUse">
<stop stop-color="#7E92F8"/>
<stop offset="1" stop-color="#6972F0"/>
</linearGradient>
<linearGradient id="paint3_linear_1_23801" x1="188.784" y1="112.287" x2="188.784" y2="124.186" gradientUnits="userSpaceOnUse">
<stop stop-color="#7E92F8"/>
<stop offset="1" stop-color="#6972F0"/>
</linearGradient>
<linearGradient id="paint4_linear_1_23801" x1="159.441" y1="152.647" x2="159.441" y2="163.26" gradientUnits="userSpaceOnUse">
<stop stop-color="#7E92F8"/>
<stop offset="1" stop-color="#6972F0"/>
</linearGradient>
</defs>
</svg>
