<svg width="21" height="18" viewBox="0 0 21 18" fill="none" xmlns="http://www.w3.org/2000/svg">
<path d="M18.8425 4.25087C18.8564 4.43787 18.8564 4.62381 18.8564 4.80974C18.8564 10.5 14.5254 17.0569 6.61032 17.0569C4.17179 17.0569 1.90637 16.3506 0 15.1238C0.346224 15.1633 0.679626 15.1772 1.03974 15.1772C2.97709 15.1819 4.85958 14.5341 6.38378 13.3382C5.48554 13.3219 4.6148 13.0256 3.89314 12.4905C3.17148 11.9554 2.63492 11.2084 2.35839 10.3536C2.62447 10.3931 2.89161 10.4199 3.17159 10.4199C3.55735 10.4199 3.94525 10.3664 4.30536 10.2735C3.33055 10.0766 2.454 9.54826 1.82475 8.77816C1.1955 8.00806 0.85241 7.04379 0.853806 6.04931V5.99588C1.42764 6.31539 2.09337 6.51521 2.79865 6.54193C2.20781 6.14931 1.72334 5.61655 1.38847 4.99118C1.05359 4.3658 0.878718 3.66726 0.879452 2.95787C0.879452 2.15856 1.0921 1.4255 1.46504 0.786485C2.54661 2.11691 3.89556 3.20531 5.42454 3.98122C6.95352 4.75712 8.62842 5.20321 10.3408 5.29061C10.2745 4.97003 10.2339 4.6377 10.2339 4.3043C10.2336 3.73897 10.3448 3.17913 10.561 2.65678C10.7772 2.13443 11.0942 1.65982 11.494 1.26007C11.8937 0.860326 12.3684 0.543285 12.8907 0.327073C13.413 0.110862 13.9729 -0.000280377 14.5382 5.31158e-07C15.7778 5.31158e-07 16.8966 0.519337 17.6831 1.35925C18.6467 1.17291 19.5708 0.821131 20.4144 0.31951C20.0932 1.31417 19.4204 2.1576 18.5219 2.69179C19.3766 2.59431 20.2118 2.36956 21 2.02499C20.4113 2.88317 19.6819 3.63572 18.8425 4.25087Z" fill="url(#paint0_linear_1_31259)"/>
<defs>
<linearGradient id="paint0_linear_1_31259" x1="10.5" y1="0" x2="10.5" y2="17.0569" gradientUnits="userSpaceOnUse">
<stop stop-color="#7E92F8"/>
<stop offset="1" stop-color="#6972F0"/>
</linearGradient>
</defs>
</svg>
