<svg width="22" height="22" viewBox="0 0 22 22" fill="none" xmlns="http://www.w3.org/2000/svg">
<path d="M11 21C16.5228 21 21 16.5228 21 11C21 5.47715 16.5228 1 11 1C5.47715 1 1 5.47715 1 11C1 16.5228 5.47715 21 11 21Z" stroke="url(#paint0_linear_1_31271)" stroke-width="2" stroke-linecap="round" stroke-linejoin="round"/>
<path d="M7 11C7 16.5228 8.79086 21 11 21C13.2091 21 15 16.5228 15 11C15 5.47715 13.2091 1 11 1C8.79086 1 7 5.47715 7 11Z" stroke="url(#paint1_linear_1_31271)" stroke-width="2" stroke-linecap="round" stroke-linejoin="round"/>
<path d="M1 11H21" stroke="url(#paint2_linear_1_31271)" stroke-width="2" stroke-linecap="round" stroke-linejoin="round"/>
<defs>
<linearGradient id="paint0_linear_1_31271" x1="11" y1="1" x2="11" y2="21" gradientUnits="userSpaceOnUse">
<stop stop-color="#7E92F8"/>
<stop offset="1" stop-color="#6972F0"/>
</linearGradient>
<linearGradient id="paint1_linear_1_31271" x1="15" y1="11" x2="7" y2="11" gradientUnits="userSpaceOnUse">
<stop stop-color="#7E92F8"/>
<stop offset="1" stop-color="#6972F0"/>
</linearGradient>
<linearGradient id="paint2_linear_1_31271" x1="11" y1="11" x2="11" y2="12" gradientUnits="userSpaceOnUse">
<stop stop-color="#7E92F8"/>
<stop offset="1" stop-color="#6972F0"/>
</linearGradient>
</defs>
</svg>
